<?xml version="1.0" encoding="UTF-8"?>
<!DOCTYPE svg PUBLIC "-//W3C//DTD SVG 1.1//EN" "http://www.w3.org/Graphics/SVG/1.1/DTD/svg11.dtd">
<!-- Creator: CorelDRAW Home & Student X7 -->
<svg xmlns="http://www.w3.org/2000/svg" xml:space="preserve" width="17.1125mm" height="17.5136mm" version="1.1" style="shape-rendering:geometricPrecision; text-rendering:geometricPrecision; image-rendering:optimizeQuality; fill-rule:evenodd; clip-rule:evenodd"
viewBox="0 0 106 109"
 xmlns:xlink="http://www.w3.org/1999/xlink">
 <defs>
  <style type="text/css">
   <![CDATA[
    .str1 {stroke:#4D4D4D;stroke-width:1.24353}
    .str0 {stroke:#B3B3B3;stroke-width:1.24353}
    .fil1 {fill:#4D4D4D}
    .fil0 {fill:#B3B3B3}
    .fil2 {fill:#4D4D4D;fill-rule:nonzero}
   ]]>
  </style>
 </defs>
 <g id="Icons">
  <metadata id="CorelCorpID_0Corel-Layer"/>
  <g id="_350088736">
   <rect class="fil0 str0" x="1" y="21" width="49.5061" height="49.3258"/>
   <rect class="fil1 str1" x="32" y="59" width="49.5061" height="49.3258"/>
   <g>
    <path class="fil2" d="M61 5c-1,-1 -1,-3 1,-4 1,-1 3,-1 4,0l-5 4zm27 35l-27 -35 5 -4 26 35 -4 4zm13 -14l5 33 -30 -13 25 -20zm-9 10c1,1 1,3 0,4 -1,1 -3,1 -4,0l4 -4z"/>
   </g>
  </g>
 </g>
</svg>
