<?xml version="1.0" encoding="UTF-8"?>
<!DOCTYPE svg PUBLIC "-//W3C//DTD SVG 1.1//EN" "http://www.w3.org/Graphics/SVG/1.1/DTD/svg11.dtd">
<!-- Creator: CorelDRAW Home & Student X7 -->
<svg xmlns="http://www.w3.org/2000/svg" xml:space="preserve" width="70555.6mm" height="70479.4mm" version="1.1" style="shape-rendering:geometricPrecision; text-rendering:geometricPrecision; image-rendering:optimizeQuality; fill-rule:evenodd; clip-rule:evenodd"
viewBox="0 0 1935117 1933029"
 xmlns:xlink="http://www.w3.org/1999/xlink">
 <defs>
  <style type="text/css">
   <![CDATA[
    .str0 {stroke:#4D4D4D;stroke-width:193303;stroke-linecap:round}
    .str1 {stroke:#4D4D4D;stroke-width:289954;stroke-linecap:round}
    .fil2 {fill:none}
    .fil1 {fill:#4D4D4D}
    .fil3 {fill:black;fill-rule:nonzero}
    .fil0 {fill:#4D4D4D;fill-rule:nonzero}
   ]]>
  </style>
 </defs>
 <g id="Icons">
  <metadata id="CorelCorpID_0Corel-Layer"/>
  <g id="_981076928">
   <path class="fil0" d="M1063166 1739726c53371,0 96651,43281 96651,96651 0,53371 -43280,96652 -96651,96652l-966515 0c-53370,0 -96651,-43281 -96651,-96652l0 -1739726c0,-53370 43281,-96651 96651,-96651l523716 0 0 193303 -427064 0 0 1546423 869863 0zm96651 -1029889l0 81255c0,53371 -43280,96652 -96651,96652 -53371,0 -96652,-43281 -96652,-96652l0 -81255 193303 0z"/>
   <g>
    <polygon class="fil1 str0" points="1759056,1265390 1563936,1393540 1368826,1521700 1368826,1265390 1368826,1009080 1563936,1137240 "/>
    <line class="fil2 str1" x1="1368826" y1="1265390" x2="453054" y2= "1265390" />
   </g>
   <path class="fil3" d="M959681 178042l0 133485 36805 0c29527,0 50104,-4987 62060,-14971 11849,-9878 17784,-27237 17784,-51777 0,-24636 -5935,-41888 -17784,-51766 -11956,-9984 -32533,-14971 -62060,-14971l-36805 0zm-89818 -75475l123298 0c62785,0 107912,11124 135457,33470 27546,22355 41270,58638 41270,108742 0,50114 -13724,86397 -41270,108753 -27545,22345 -72672,33470 -135457,33470l-33480 0 0 170290 -89818 0 0 -454725z"/>
   <polygon id="1" class="fil3" points="1232267,102567 1328851,102567 1455580,433056 1455580,102567 1534796,102567 1534796,557292 1438840,557292 1311492,226802 1311492,557292 1232267,557292 "/>
   <path id="2" class="fil3" d="M1837325 475158l0 -86909 -61751 0 0 -75475 140348 0 0 208342c-17262,14758 -36283,25883 -57179,33470 -20790,7597 -43146,11444 -66845,11444 -58947,0 -104480,-20481 -136607,-61345 -32127,-40855 -48132,-98971 -48132,-174340 0,-76519 16218,-134945 48654,-175277 32330,-40439 79109,-60611 140241,-60611 18297,0 36283,2600 53951,7694 17678,5200 34312,12574 49699,22249l0 99802c-12585,-16324 -27034,-28589 -43455,-36911 -16324,-8215 -34205,-12371 -53748,-12371 -34098,0 -59672,12893 -76519,38573 -16836,25681 -25264,64660 -25264,116852 0,50626 8109,89200 24433,115605 16218,26405 39927,39608 71010,39608 9356,0 17465,-832 24424,-2600 6862,-1769 12477,-4369 16740,-7800z"/>
  </g>
 </g>
</svg>
