<?xml version="1.0" encoding="UTF-8"?>
<!DOCTYPE svg PUBLIC "-//W3C//DTD SVG 1.1//EN" "http://www.w3.org/Graphics/SVG/1.1/DTD/svg11.dtd">
<!-- Creator: CorelDRAW Home & Student X7 -->
<svg xmlns="http://www.w3.org/2000/svg" xml:space="preserve" width="18mm" height="18.5mm" version="1.1" style="shape-rendering:geometricPrecision; text-rendering:geometricPrecision; image-rendering:optimizeQuality; fill-rule:evenodd; clip-rule:evenodd"
viewBox="0 0 185 190"
 xmlns:xlink="http://www.w3.org/1999/xlink">
 <defs>
  <style type="text/css">
   <![CDATA[
    .str0 {stroke:#4D4D4D;stroke-width:10.2857;stroke-dasharray:10.285714 10.285714}
    .fil0 {fill:none}
    .fil2 {fill:#666666}
    .fil1 {fill:#B3B3B3}
    .fil3 {fill:#4D4D4D;fill-rule:nonzero}
   ]]>
  </style>
 </defs>
 <g id="Icons">
  <metadata id="CorelCorpID_0Corel-Layer"/>
  <g id="_441075912">
   <line class="fil0 str0" x1="93" y1="0" x2="93" y2= "185" />
   <rect class="fil1" width="72" height="133.714"/>
   <rect class="fil2" x="113" width="72" height="133.714"/>
   <g>
    <path class="fil3" d="M73 149l-38 38 -15 -54 53 16zm57 12l7 7 -2 3 -3 2 -3 3 -2 2 -3 2 -3 1 -3 2 -3 2 -2 1 -3 1 -3 1 -3 1 -3 0 -3 1 -3 0 -2 0 -3 0 -3 0 -3 -1 -3 0 -3 -1 -3 -1 -2 -1 -3 -1 -3 -2 -3 -2 -3 -1 -2 -2 -3 -2 -3 -3 -3 -2 -2 -3 7 -7 3 2 2 3 2 2 3 1 2 2 3 2 2 1 2 1 3 1 2 1 2 1 3 1 2 0 2 1 2 0 3 0 2 0 2 0 2 -1 3 0 2 -1 2 -1 3 -1 2 -1 2 -1 3 -1 2 -2 2 -2 3 -1 2 -2 3 -3 2 -2zm-18 -12l53 -16 -15 54 -38 -38z"/>
   </g>
  </g>
 </g>
</svg>
