<?xml version="1.0" encoding="UTF-8"?>
<!DOCTYPE svg PUBLIC "-//W3C//DTD SVG 1.1//EN" "http://www.w3.org/Graphics/SVG/1.1/DTD/svg11.dtd">
<!-- Creator: CorelDRAW Home & Student X7 -->
<svg xmlns="http://www.w3.org/2000/svg" xml:space="preserve" width="18.5mm" height="18mm" version="1.1" style="shape-rendering:geometricPrecision; text-rendering:geometricPrecision; image-rendering:optimizeQuality; fill-rule:evenodd; clip-rule:evenodd"
viewBox="0 0 274 266"
 xmlns:xlink="http://www.w3.org/1999/xlink">
 <defs>
  <style type="text/css">
   <![CDATA[
    .str0 {stroke:#4D4D4D;stroke-width:14.8;stroke-dasharray:14.800047 14.800047}
    .fil0 {fill:none}
    .fil2 {fill:#666666}
    .fil1 {fill:#B3B3B3}
    .fil3 {fill:#4D4D4D;fill-rule:nonzero}
   ]]>
  </style>
 </defs>
 <g id="Icons">
  <metadata id="CorelCorpID_0Corel-Layer"/>
  <g id="_441095712">
   <line class="fil0 str0" x1="0" y1="133" x2="266" y2= "133" />
   <rect class="fil1" transform="matrix(2.64845E-014 -1 1 2.64845E-014 -3.52429E-012 266.401)" width="104" height="192"/>
   <rect class="fil2" transform="matrix(2.64845E-014 -1 1 2.64845E-014 7.95808E-013 103.6)" width="104" height="192"/>
   <g>
    <path class="fil3" d="M214 161l54 54 -77 23 23 -77zm18 -82l10 -10 4 4 3 4 4 3 3 4 3 4 2 4 2 4 3 4 2 4 1 4 2 4 1 5 1 4 0 4 1 4 0 4 0 4 -1 5 0 4 -1 4 -1 4 -2 4 -1 4 -2 4 -3 4 -2 4 -2 4 -3 4 -3 4 -4 4 -3 4 -4 4 -10 -11 3 -3 3 -4 3 -3 3 -4 2 -3 3 -4 2 -3 1 -4 2 -3 1 -3 1 -4 1 -3 1 -3 1 -3 0 -4 0 -3 0 -3 0 -3 -1 -4 -1 -3 -1 -3 -1 -3 -1 -4 -2 -3 -1 -3 -2 -4 -3 -3 -2 -4 -3 -3 -3 -4 -3 -3 -3 -4zm-18 27l-23 -77 77 22 -54 55z"/>
   </g>
  </g>
 </g>
</svg>
