<?xml version="1.0" encoding="UTF-8"?>
<!DOCTYPE svg PUBLIC "-//W3C//DTD SVG 1.1//EN" "http://www.w3.org/Graphics/SVG/1.1/DTD/svg11.dtd">
<!-- Creator: CorelDRAW Home & Student X7 -->
<svg xmlns="http://www.w3.org/2000/svg" xml:space="preserve" width="70555.6mm" height="70555.6mm" version="1.1" style="shape-rendering:geometricPrecision; text-rendering:geometricPrecision; image-rendering:optimizeQuality; fill-rule:evenodd; clip-rule:evenodd"
viewBox="0 0 791183 791183"
 xmlns:xlink="http://www.w3.org/1999/xlink">
 <defs>
  <style type="text/css">
   <![CDATA[
    .str0 {stroke:#4D4D4D;stroke-width:121720;stroke-linecap:round}
    .fil1 {fill:none}
    .fil0 {fill:#4D4D4D;fill-rule:nonzero}
   ]]>
  </style>
 </defs>
 <g id="Icons">
  <metadata id="CorelCorpID_0Corel-Layer"/>
  <g id="_764706456">
   <g>
    <path class="fil0" d="M122426 30430c0,-16805 13625,-30430 30430,-30430 16806,0 30431,13625 30431,30430l0 334804 -60861 60860 0 -395664z"/>
    <path class="fil0" d="M284712 30430c0,-16805 13625,-30430 30430,-30430 16806,0 30430,13625 30430,30430l0 172518 -60860 60861 0 -233379zm60860 631502l0 98821c0,16805 -13624,30430 -30430,30430 -16805,0 -30430,-13625 -30430,-30430l0 -37961 60860 -60860z"/>
    <path class="fil0" d="M447022 30430c0,-16805 13625,-30430 30430,-30430 16806,0 30430,13625 30430,30430l0 10208 -60860 60861 0 -71069zm60860 469192l0 261131c0,16805 -13624,30430 -30430,30430 -16805,0 -30430,-13625 -30430,-30430l0 -200271 60860 -60860z"/>
    <path class="fil0" d="M670160 337344l0 423409c0,16805 -13624,30430 -30430,30430 -16806,0 -30430,-13625 -30430,-30430l0 -362549 60860 -60860z"/>
    <path class="fil0" d="M30430 180917c-16805,0 -30430,-13624 -30430,-30430 0,-16806 13625,-30430 30430,-30430l398034 0 -60860 60860 -337174 0z"/>
    <path class="fil0" d="M30430 343227c-16805,0 -30430,-13624 -30430,-30430 0,-16805 13625,-30430 30430,-30430l235724 0 -60860 60860 -174864 0zm694707 -60860l35616 0c16805,0 30430,13625 30430,30430 0,16806 -13625,30430 -30430,30430l-96476 0 60860 -60860z"/>
    <path class="fil0" d="M30430 505521c-16805,0 -30430,-13625 -30430,-30430 0,-16806 13625,-30430 30430,-30430l73430 0 -60860 60860 -12570 0zm532413 -60860l197910 0c16805,0 30430,13624 30430,30430 0,16805 -13625,30430 -30430,30430l-258770 0 60860 -60860z"/>
    <path class="fil0" d="M400533 606971l360220 0c16805,0 30430,13625 30430,30430 0,16806 -13625,30430 -30430,30430l-421080 0 60860 -60860z"/>
   </g>
   <line class="fil1 str0" x1="62974" y1="715038" x2="712150" y2= "65863" />
  </g>
 </g>
</svg>
