<?xml version="1.0" encoding="UTF-8"?>
<!DOCTYPE svg PUBLIC "-//W3C//DTD SVG 1.1//EN" "http://www.w3.org/Graphics/SVG/1.1/DTD/svg11.dtd">
<!-- Creator: CorelDRAW Home & Student X7 -->
<svg xmlns="http://www.w3.org/2000/svg" xml:space="preserve" width="70555.6mm" height="70555.6mm" version="1.1" style="shape-rendering:geometricPrecision; text-rendering:geometricPrecision; image-rendering:optimizeQuality; fill-rule:evenodd; clip-rule:evenodd"
viewBox="0 0 491511 491511"
 xmlns:xlink="http://www.w3.org/1999/xlink">
 <defs>
  <style type="text/css">
   <![CDATA[
    .str0 {stroke:#4D4D4D;stroke-width:47565.5}
    .fil0 {fill:none}
    .fil1 {fill:#4D4D4D;fill-rule:nonzero}
   ]]>
  </style>
 </defs>
 <g id="Icons">
  <metadata id="CorelCorpID_0Corel-Layer"/>
  <g id="_837617040">
   <circle class="fil0 str0" cx="245755" cy="245755" r="221973"/>
   <path class="fil1" d="M286741 184951l0 219356 -82428 0 0 -219356 82428 0zm-40764 -97744c11188,0 20796,3903 28980,11786 8182,7807 12234,17118 12234,27852 0,11409 -3827,20868 -11558,28152 -7734,7357 -17568,11035 -29656,11035 -12008,0 -21918,-3678 -29652,-11035 -7731,-7284 -11562,-16743 -11562,-28152 0,-10734 4056,-20045 12237,-27852 8185,-7883 17793,-11786 28977,-11786z"/>
  </g>
 </g>
</svg>
