<?xml version="1.0" encoding="UTF-8"?>
<!DOCTYPE svg PUBLIC "-//W3C//DTD SVG 1.1//EN" "http://www.w3.org/Graphics/SVG/1.1/DTD/svg11.dtd">
<!-- Creator: CorelDRAW Home & Student X7 -->
<svg xmlns="http://www.w3.org/2000/svg" xml:space="preserve" width="69915.3mm" height="70555.6mm" version="1.1" style="shape-rendering:geometricPrecision; text-rendering:geometricPrecision; image-rendering:optimizeQuality; fill-rule:evenodd; clip-rule:evenodd"
viewBox="0 0 5223304 5271138"
 xmlns:xlink="http://www.w3.org/1999/xlink">
 <defs>
  <style type="text/css">
   <![CDATA[
    .str1 {stroke:#4D4D4D;stroke-width:52767.8}
    .str0 {stroke:#4D4D4D;stroke-width:395759;stroke-linejoin:round}
    .fil0 {fill:none}
    .fil1 {fill:#4D4D4D}
   ]]>
  </style>
 </defs>
 <g id="Icons">
  <metadata id="CorelCorpID_0Corel-Layer"/>
  <g id="_987857344">
   <path class="fil0 str0" d="M1189123 5062204c-504777,-137724 -1279541,-682394 -881592,-1586835 397975,-904440 2269255,-2775720 3173669,-3173669 904441,-397975 1395103,440190 1532774,944967 110153,403779 -577438,941378 -915179,1083139 -181521,-181548 -451693,-451693 -633214,-633241 -587728,587729 -1175457,1175457 -1763158,1763159 181521,181521 484329,475016 665851,656537 -151101,328375 -775424,1056070 -1179151,945943z"/>
   <g>
    <polygon class="fil1 str1" points="3100005,4018087 3100005,3754248 3363845,3754248 3363845,3490408 4155362,3490408 4155362,3754248 4419202,3754248 4419202,4018087 4155362,4018087 4155362,4281926 3363845,4281926 3363845,4018087 "/>
    <rect class="fil1 str1" x="3100005" y="4281926" width="263839" height="263839"/>
    <rect class="fil1 str1" x="3100005" y="3226569" width="263839" height="263839"/>
    <rect class="fil1 str1" x="3100005" y="2962730" width="263839" height="263839"/>
    <rect class="fil1 str1" x="2836166" y="4545765" width="263839" height="263839"/>
    <rect class="fil1 str1" x="4155362" y="4281926" width="263839" height="263839"/>
    <rect class="fil1 str1" x="4419202" y="4545765" width="263839" height="263839"/>
    <rect class="fil1 str1" x="4155362" y="3226569" width="263839" height="263839"/>
    <rect class="fil1 str1" x="4155362" y="2962730" width="263839" height="263839"/>
    <rect class="fil1 str1" x="4419202" y="3754248" width="263839" height="263839"/>
    <rect class="fil1 str1" x="2836166" y="3754248" width="263839" height="263839"/>
    <rect class="fil1 str1" x="2572327" y="3490408" width="263839" height="263839"/>
    <rect class="fil1 str1" x="4683041" y="3490408" width="263839" height="263839"/>
   </g>
  </g>
 </g>
</svg>
