<?xml version="1.0" encoding="UTF-8"?>
<!DOCTYPE svg PUBLIC "-//W3C//DTD SVG 1.1//EN" "http://www.w3.org/Graphics/SVG/1.1/DTD/svg11.dtd">
<!-- Creator: CorelDRAW Home & Student X7 -->
<svg xmlns="http://www.w3.org/2000/svg" xml:space="preserve" width="18.2406mm" height="15.4999mm" version="1.1" style="shape-rendering:geometricPrecision; text-rendering:geometricPrecision; image-rendering:optimizeQuality; fill-rule:evenodd; clip-rule:evenodd"
viewBox="0 0 441 375"
 xmlns:xlink="http://www.w3.org/1999/xlink">
 <defs>
  <style type="text/css">
   <![CDATA[
    .fil1 {fill:#666666}
    .fil0 {fill:#B3B3B3}
    .fil2 {fill:#4D4D4D;fill-rule:nonzero}
   ]]>
  </style>
 </defs>
 <g id="Icons">
  <metadata id="CorelCorpID_0Corel-Layer"/>
  <g id="_442494392">
   <polygon class="fil0" points="0,375 151,375 151,106 "/>
   <polygon class="fil1" points="175,230 175,375 441,375 "/>
   <g>
    <path class="fil2" d="M356 149l-24 0 0 -8 0 -8 -1 -7 -1 -8 -1 -6 -1 -7 -2 -6 -2 -6 -2 -6 -2 -5 -3 -5 -2 -5 -3 -5 -4 -4 -3 -4 -4 -4 -3 -4 -5 -3 -4 -3 -4 -3 -5 -3 -5 -3 -6 -2 -6 -2 -6 -2 -6 -1 -6 -2 -7 -1 -7 -1 -8 0 -8 -1 -8 0 0 -24 9 0 9 1 8 0 8 1 8 2 8 1 7 2 7 2 7 3 7 2 6 4 6 3 6 4 5 4 6 4 5 5 4 5 5 5 4 5 3 6 4 6 3 7 3 6 2 7 2 7 2 8 2 7 1 8 1 8 1 8 0 9 0 9zm51 -10l-63 115 -63 -115 126 0z"/>
   </g>
  </g>
 </g>
</svg>
