<?xml version="1.0" encoding="UTF-8"?>
<!DOCTYPE svg PUBLIC "-//W3C//DTD SVG 1.1//EN" "http://www.w3.org/Graphics/SVG/1.1/DTD/svg11.dtd">
<!-- Creator: CorelDRAW Home & Student X7 -->
<svg xmlns="http://www.w3.org/2000/svg" xml:space="preserve" width="18.2406mm" height="15.2708mm" version="1.1" style="shape-rendering:geometricPrecision; text-rendering:geometricPrecision; image-rendering:optimizeQuality; fill-rule:evenodd; clip-rule:evenodd"
viewBox="0 0 1331 1114"
 xmlns:xlink="http://www.w3.org/1999/xlink">
 <defs>
  <style type="text/css">
   <![CDATA[
    .fil0 {fill:#666666}
    .fil1 {fill:#B3B3B3}
    .fil2 {fill:#4D4D4D;fill-rule:nonzero}
   ]]>
  </style>
 </defs>
 <g id="Icons">
  <metadata id="CorelCorpID_0Corel-Layer"/>
  <g id="_441076008">
   <polygon class="fil0" points="0,1114 455,1114 455,303 "/>
   <polygon class="fil1" points="528,676 528,1114 1331,1114 "/>
   <g>
    <path class="fil2" d="M760 0l0 381 -347 -190 347 -191zm419 603l-73 0 0 -24 -2 -23 -2 -23 -2 -21 -4 -21 -4 -20 -5 -19 -5 -18 -6 -17 -7 -16 -8 -16 -8 -14 -9 -14 -9 -13 -11 -13 -11 -11 -11 -11 -13 -10 -13 -10 -14 -9 -14 -8 -16 -8 -16 -7 -17 -6 -18 -5 -19 -5 -20 -4 -21 -4 -21 -2 -23 -2 -23 -1 -24 -1 0 -73 26 1 26 1 25 2 25 3 23 4 23 5 22 5 22 7 20 7 20 9 20 9 18 10 17 12 17 12 16 13 15 14 14 15 13 16 12 17 12 17 10 19 9 19 9 20 7 20 7 22 5 22 5 23 4 24 3 24 2 25 1 26 1 26z"/>
   </g>
  </g>
 </g>
</svg>
