<?xml version="1.0" encoding="UTF-8"?>
<!DOCTYPE svg PUBLIC "-//W3C//DTD SVG 1.1//EN" "http://www.w3.org/Graphics/SVG/1.1/DTD/svg11.dtd">
<!-- Creator: CorelDRAW Home & Student X7 -->
<svg xmlns="http://www.w3.org/2000/svg" xml:space="preserve" width="20mm" height="17.815mm" version="1.1" style="shape-rendering:geometricPrecision; text-rendering:geometricPrecision; image-rendering:optimizeQuality; fill-rule:evenodd; clip-rule:evenodd"
viewBox="0 0 1576 1403"
 xmlns:xlink="http://www.w3.org/1999/xlink">
 <defs>
  <style type="text/css">
   <![CDATA[
    .str0 {stroke:black;stroke-width:16.6334}
    .fil0 {fill:none}
    .fil1 {fill:black}
   ]]>
  </style>
 </defs>
 <g id="Icons">
  <metadata id="CorelCorpID_0Corel-Layer"/>
  <g id="_835288880">
   <path class="fil0 str0" d="M782 1353c-448,66 -585,-254 -758,-587 -89,-173 204,-739 660,-739 168,0 515,-72 620,65 386,505 313,602 5,1192 -103,198 -521,71 -579,74"/>
   <path class="fil0 str0" d="M394 434c111,-348 527,-10 183,166 -125,64 -204,165 -208,-72 0,-63 44,-59 44,-143"/>
   <path class="fil0 str0" d="M1057 591c-391,-430 433,-462 195,-42 -37,65 -179,21 -187,27l-27 -19"/>
   <path class="fil1 str0" d="M455 391c-88,144 91,94 77,-9 -3,-1 -76,9 -77,9z"/>
   <path class="fil1 str0" d="M1128 383c0,192 251,-75 9,-75 -26,23 -8,49 -9,75z"/>
   <path class="fil0 str0" d="M455 890c-30,-16 287,270 669,124 94,-35 62,-234 120,-295"/>
  </g>
 </g>
</svg>
