<?xml version="1.0" encoding="UTF-8"?>
<!DOCTYPE svg PUBLIC "-//W3C//DTD SVG 1.1//EN" "http://www.w3.org/Graphics/SVG/1.1/DTD/svg11.dtd">
<!-- Creator: CorelDRAW Home & Student X7 -->
<svg xmlns="http://www.w3.org/2000/svg" xml:space="preserve" width="17.6124mm" height="17.0137mm" version="1.1" style="shape-rendering:geometricPrecision; text-rendering:geometricPrecision; image-rendering:optimizeQuality; fill-rule:evenodd; clip-rule:evenodd"
viewBox="0 0 139 134"
 xmlns:xlink="http://www.w3.org/1999/xlink">
 <defs>
  <style type="text/css">
   <![CDATA[
    .str0 {stroke:#4D4D4D;stroke-width:1.57469}
    .str1 {stroke:#B3B3B3;stroke-width:1.57469}
    .fil0 {fill:#4D4D4D}
    .fil1 {fill:#B3B3B3}
    .fil2 {fill:#4D4D4D;fill-rule:nonzero}
   ]]>
  </style>
 </defs>
 <g id="Icons">
  <metadata id="CorelCorpID_0Corel-Layer"/>
  <g id="_386884272">
   <rect class="fil0 str0" x="1" y="23" width="62.6899" height="62.4615"/>
   <rect class="fil1 str1" x="40" y="71" width="62.6899" height="62.4615"/>
   <g>
    <path class="fil2" d="M119 17l-32 25 -7 -42 39 17zm-21 13c-1,-2 -1,-5 1,-6 1,-1 4,-1 5,1l-6 5zm34 43l-34 -43 6 -5 34 43 -6 5zm6 -5c1,2 1,5 -1,6 -2,1 -4,1 -5,-1l6 -5z"/>
   </g>
  </g>
 </g>
</svg>
