<?xml version="1.0" encoding="UTF-8"?>
<!DOCTYPE svg PUBLIC "-//W3C//DTD SVG 1.1//EN" "http://www.w3.org/Graphics/SVG/1.1/DTD/svg11.dtd">
<!-- Creator: CorelDRAW Home & Student X7 -->
<svg xmlns="http://www.w3.org/2000/svg" xml:space="preserve" width="70555.6mm" height="66686mm" version="1.1" style="shape-rendering:geometricPrecision; text-rendering:geometricPrecision; image-rendering:optimizeQuality; fill-rule:evenodd; clip-rule:evenodd"
viewBox="0 0 1055517 997628"
 xmlns:xlink="http://www.w3.org/1999/xlink">
 <defs>
  <style type="text/css">
   <![CDATA[
    .str0 {stroke:#333333;stroke-width:55996.5;stroke-dasharray:55996.472663 55996.472663}
    .fil0 {fill:none}
    .fil1 {fill:#4D4D4D}
    .fil2 {fill:#4D4D4D;fill-rule:nonzero}
   ]]>
  </style>
 </defs>
 <g id="Icons">
  <metadata id="CorelCorpID_0Corel-Layer"/>
  <g id="_980686184">
   <rect class="fil0 str0" x="27998" y="465661" width="503968" height="503968"/>
   <circle class="fil1" cx="693897" cy="217054" r="111993"/>
   <g>
    <path class="fil2" d="M693897 108527c29964,0 57094,12151 76738,31789 19638,19638 31789,46774 31789,76738 0,29834 -12179,56948 -31862,76664l73 73c-19644,19638 -46774,31789 -76738,31789 -29796,0 -56887,-12145 -76592,-31789l-73 -73 -72 -72c-19644,-19706 -31790,-46797 -31790,-76592 0,-29964 12152,-57100 31790,-76738l72 73c19717,-19683 46830,-31862 76665,-31862zm25585 82942c-6541,-6546 -15595,-10595 -25585,-10595 -10085,0 -19128,3998 -25585,10455l0 140c-6546,6540 -10594,15595 -10594,25585 0,10084 3998,19128 10454,25584l140 140c6457,6457 15500,10455 25585,10455 9990,0 19044,-4049 25585,-10595l140 0c6456,-6456 10454,-15500 10454,-25584 0,-9990 -4048,-19045 -10594,-25585z"/>
    <path class="fil2" d="M398286 237117c-11076,16547 -33475,20971 -50022,9895 -16541,-11082 -20965,-33481 -9889,-50022 38347,-57514 94847,-105514 156180,-139588 65634,-36459 137516,-57402 199342,-57402 61826,0 133708,20943 199342,57402 61333,34074 117833,82074 156180,139588 11076,16541 6652,38940 -9889,50022 -16547,11076 -38946,6652 -50022,-9895 -31756,-47625 -79319,-87802 -131312,-116691 -54977,-30540 -114232,-48073 -164299,-48073 -50066,0 -109322,17533 -164299,48073 -51993,28889 -99556,69066 -131312,116691z"/>
    <path class="fil2" d="M338375 237117c-11076,-16541 -6652,-38940 9889,-50022 16547,-11076 38946,-6652 50022,9895 31756,47625 79319,87802 131312,116691 54977,30541 114233,48073 164299,48073 50067,0 109322,-17532 164299,-48073 51993,-28889 99556,-69066 131312,-116691 11076,-16547 33475,-20971 50022,-9895 16541,11082 20965,33481 9889,50022 -38347,57514 -94847,105514 -156180,139588 -65634,36459 -137516,57402 -199342,57402 -61826,0 -133708,-20943 -199342,-57402 -61333,-34074 -117833,-82074 -156180,-139588z"/>
   </g>
  </g>
 </g>
</svg>
