<?xml version="1.0" encoding="UTF-8"?>
<!DOCTYPE svg PUBLIC "-//W3C//DTD SVG 1.1//EN" "http://www.w3.org/Graphics/SVG/1.1/DTD/svg11.dtd">
<!-- Creator: CorelDRAW Home & Student X7 -->
<svg xmlns="http://www.w3.org/2000/svg" xml:space="preserve" width="20mm" height="11mm" version="1.1" style="shape-rendering:geometricPrecision; text-rendering:geometricPrecision; image-rendering:optimizeQuality; fill-rule:evenodd; clip-rule:evenodd"
viewBox="0 0 315 173"
 xmlns:xlink="http://www.w3.org/1999/xlink">
 <defs>
  <style type="text/css">
   <![CDATA[
    .str0 {stroke:#4D4D4D;stroke-width:15.748}
    .fil1 {fill:none}
    .fil0 {fill:#4D4D4D;fill-rule:nonzero}
   ]]>
  </style>
 </defs>
 <g id="Icons">
  <metadata id="CorelCorpID_0Corel-Layer"/>
  <g id="_847965104">
   <path class="fil0" d="M106 151l-23 0 -9 -24 -42 0 -9 24 -23 0 41 -106 23 0 42 106zm-39 -42l-15 -39 -14 39 29 0z"/>
   <path id="1" class="fil0" d="M117 151l0 -106 20 0 0 38c6,-7 14,-10 22,-10 10,0 17,3 24,10 6,7 9,16 9,29 0,13 -3,23 -10,30 -6,7 -13,11 -22,11 -5,0 -9,-1 -13,-3 -5,-3 -8,-6 -11,-10l0 11 -19 0zm20 -40c0,8 1,14 4,18 3,5 8,8 14,8 4,0 8,-2 11,-6 3,-4 5,-10 5,-18 0,-9 -2,-15 -5,-19 -3,-4 -7,-6 -12,-6 -5,0 -9,2 -12,6 -4,4 -5,9 -5,17z"/>
   <path id="2" class="fil0" d="M275 97l-20 4c-1,-4 -2,-7 -4,-9 -3,-2 -6,-3 -10,-3 -5,0 -9,1 -12,5 -3,3 -4,9 -4,17 0,10 1,16 4,20 3,4 7,5 12,5 4,0 7,-1 10,-3 2,-2 4,-6 5,-11l20 3c-2,9 -6,16 -12,21 -6,5 -14,7 -23,7 -12,0 -21,-4 -27,-11 -7,-7 -10,-17 -10,-29 0,-13 3,-23 10,-30 6,-7 16,-10 27,-10 9,0 17,2 22,6 6,4 10,10 12,18z"/>
   <g>
    <line class="fil1 str0" x1="282" y1="8" x2="282" y2= "165" />
    <line class="fil1 str0" x1="248" y1="8" x2="315" y2= "8" />
    <line class="fil1 str0" x1="248" y1="165" x2="315" y2= "165" />
   </g>
  </g>
 </g>
</svg>
