<?xml version="1.0" encoding="UTF-8"?>
<!DOCTYPE svg PUBLIC "-//W3C//DTD SVG 1.1//EN" "http://www.w3.org/Graphics/SVG/1.1/DTD/svg11.dtd">
<!-- Creator: CorelDRAW Home & Student X7 -->
<svg xmlns="http://www.w3.org/2000/svg" xml:space="preserve" width="70555.6mm" height="70024.2mm" version="1.1" style="shape-rendering:geometricPrecision; text-rendering:geometricPrecision; image-rendering:optimizeQuality; fill-rule:evenodd; clip-rule:evenodd"
viewBox="0 0 1185026 1176101"
 xmlns:xlink="http://www.w3.org/1999/xlink">
 <defs>
  <style type="text/css">
   <![CDATA[
    .str0 {stroke:#4D4D4D;stroke-width:109444}
    .fil0 {fill:none}
    .fil1 {fill:#4D4D4D;fill-rule:nonzero}
   ]]>
  </style>
 </defs>
 <g id="Icons">
  <metadata id="CorelCorpID_0Corel-Layer"/>
  <g id="_976149520">
   <polygon class="fil0 str0" points="328222,96480 382315,175023 481811,154179 458827,244416 545430,293479 458827,342543 481811,432780 382315,411936 328222,490479 274130,411936 174634,432780 197617,342543 111014,293479 197617,244416 174634,154179 274130,175023 "/>
   <g>
    <path class="fil1" d="M465367 1005418l-237237 -305015 43198 -33599 237236 305014 -43197 33600zm120672 -122430l46744 293113 -272587 -117455 225843 -175658z"/>
   </g>
   <g>
    <path class="fil1" d="M741488 790656l-237236 -305015 43198 -33599 237236 305015 -43198 33599zm120673 -122430l46744 293113 -272587 -117455 225843 -175658z"/>
   </g>
   <g>
    <path class="fil1" d="M1017610 575894l-237236 -305015 43197 -33599 237236 305015 -43197 33599zm120673 -122429l46743 293112 -272586 -117455 225843 -175657z"/>
   </g>
  </g>
 </g>
</svg>
