<?xml version="1.0" encoding="UTF-8"?>
<!DOCTYPE svg PUBLIC "-//W3C//DTD SVG 1.1//EN" "http://www.w3.org/Graphics/SVG/1.1/DTD/svg11.dtd">
<!-- Creator: CorelDRAW Home & Student X7 -->
<svg xmlns="http://www.w3.org/2000/svg" xml:space="preserve" width="62962.1mm" height="70555.6mm" version="1.1" style="shape-rendering:geometricPrecision; text-rendering:geometricPrecision; image-rendering:optimizeQuality; fill-rule:evenodd; clip-rule:evenodd"
viewBox="0 0 4492581 5034400"
 xmlns:xlink="http://www.w3.org/1999/xlink">
 <defs>
  <style type="text/css">
   <![CDATA[
    .str2 {stroke:#4D4D4D;stroke-width:248461;stroke-linecap:round}
    .str0 {stroke:#4D4D4D;stroke-width:248461;stroke-linecap:round;stroke-linejoin:round}
    .str1 {stroke:#4D4D4D;stroke-width:372692;stroke-linecap:round;stroke-linejoin:round}
    .fil0 {fill:none}
   ]]>
  </style>
 </defs>
 <g id="Icons">
  <metadata id="CorelCorpID_0Corel-Layer"/>
  <g id="_768088864">
   <path class="fil0 str0" d="M2620274 2516840c-52524,224236 -317881,340814 -536478,340814 -116304,0 -245852,-32995 -349535,-97670 -109845,124455 -270575,202968 -449616,202968 -317732,0 -577772,-247244 -598221,-559808 -319720,-49245 -562193,-328069 -562193,-660858 0,-156779 53816,-301582 144182,-416048 -18709,-45494 -29145,-95608 -29145,-149947 0,-285656 288390,-453914 548454,-453914 47506,0 95956,5615 143412,16522 72750,-155139 230374,-262623 413042,-262623 110069,0 211019,39008 289806,103956 16846,-1913 33965,-2907 51307,-2907 46338,0 91036,7056 133076,20125 52475,-46487 116852,-79905 187837,-95309 33120,-251891 327348,-377910 558591,-377910 245381,0 561672,141896 561672,425515 0,139486 -76501,244685 -183414,315571 23628,54860 36598,115236 36598,177476 0,43480 -6336,86042 -18212,126467 17790,8075 34934,17243 51407,27455 38238,-16846 80725,-26337 127162,-26337 25716,0 50214,2907 73445,8373 -919,-11131 -1391,-22362 -1391,-33692 0,-221925 179215,-402979 401489,-402979 115311,0 219043,48723 292166,126616 104006,-24896 214993,-10783 309881,58165 193849,140828 191563,414185 59158,596406 -99782,137350 -273605,220833 -436174,191912 -46437,199092 -221627,350554 -435602,350554 -49991,0 -97894,-8273 -142518,-23479 -36474,15056 -76700,23479 -120454,23479 -46437,0 -88924,-9491 -127162,-26337 -12001,7429 -24350,14312 -37046,20623 2534,17839 3851,36176 3851,54959 0,209950 -164755,363947 -359375,401862z"/>
   <line class="fil0 str1" x1="2278491" y1="4848054" x2="2064764" y2= "2924019" />
   <polyline class="fil0 str0" points="2117687,3400642 2809701,3168828 3306624,3168828 "/>
   <path class="fil0 str2" d="M1131643 1767281c-187191,0 -338952,-146045 -338952,-326180 0,-116106 64128,-223466 168408,-281879"/>
   <path class="fil0 str2" d="M2385876 1771381c12895,99285 -24349,216410 -99757,313782 -127635,164755 -325013,225553 -440895,135809 -26884,-20846 -47829,-48823 -61718,-82439"/>
   <path class="fil0 str2" d="M1962299 863627c86887,-1938 189452,47034 270400,129101 96652,97968 144108,224062 118989,316266"/>
  </g>
 </g>
</svg>
