<?xml version="1.0" encoding="UTF-8"?>
<!DOCTYPE svg PUBLIC "-//W3C//DTD SVG 1.1//EN" "http://www.w3.org/Graphics/SVG/1.1/DTD/svg11.dtd">
<!-- Creator: CorelDRAW Home & Student X7 -->
<svg xmlns="http://www.w3.org/2000/svg" xml:space="preserve" width="70555.6mm" height="63596.8mm" version="1.1" style="shape-rendering:geometricPrecision; text-rendering:geometricPrecision; image-rendering:optimizeQuality; fill-rule:evenodd; clip-rule:evenodd"
viewBox="0 0 605256 545561"
 xmlns:xlink="http://www.w3.org/1999/xlink">
 <defs>
  <style type="text/css">
   <![CDATA[
    .str0 {stroke:#4D4D4D;stroke-width:15580.4}
    .fil1 {fill:none;fill-rule:nonzero}
    .fil0 {fill:#4D4D4D;fill-rule:nonzero}
   ]]>
  </style>
 </defs>
 <g id="Icons">
  <metadata id="CorelCorpID_0Corel-Layer"/>
  <path class="fil0" d="M178592 198788c4759,196 9324,389 13789,486 4372,96 8547,96 12333,196 3883,0 7283,97 10389,97 3107,96 5731,96 7865,96 4372,0 8545,-96 12431,-389 3882,-290 7185,-583 9902,-873 1069,3593 1555,6407 1555,8545 0,4175 -1651,6892 -5147,8254 -3494,1262 -8448,1941 -15051,1941 -6503,0 -13789,-293 -21847,-1068 -8058,-680 -16895,-1359 -26605,-2038 -390,11261 -876,23595 -1458,36801 -583,13302 -1262,27091 -2135,41269 -972,14272 -2041,28643 -3400,43307 -1358,14662 -2913,28936 -4854,42918 -1942,13886 -4273,27188 -6893,39908 -2721,12623 -5827,24181 -9324,34473 -5534,16216 -11847,29712 -18836,40587 -7089,10875 -14565,19616 -22433,26219 -7962,6603 -16116,11265 -24664,14079 -8448,2817 -16895,4175 -25343,4175 -7282,0 -14078,-776 -20292,-2427 -6217,-1652 -11558,-3786 -16119,-6507 -4566,-2814 -8158,-6020 -10779,-9613 -2624,-3689 -3886,-7572 -3886,-11651 0,-2234 486,-4465 1555,-6699 1069,-2235 2524,-4176 4369,-5924 1845,-1748 3982,-3107 6506,-4176 2524,-1069 5245,-1651 8158,-1651 2814,4954 5824,9127 9127,12623 3300,3400 6893,6313 10682,8544 3786,2138 7765,3790 11844,4858 4079,1066 8158,1552 12334,1552 10875,0 20195,-3496 27770,-10582 7672,-7089 14079,-17092 19227,-30005 5144,-12916 9223,-28549 12137,-46900 3010,-18257 5244,-38649 6796,-61079 1555,-22429 2624,-46607 3110,-72632 583,-26023 872,-53307 1066,-81857 -8934,97 -17089,390 -24761,972 -7572,583 -13885,1748 -19030,3690 -389,-876 -582,-1748 -582,-2721 0,-2231 1065,-4368 3299,-6310 2138,-1941 5245,-3689 9127,-5244 3983,-1455 8741,-2717 14275,-3689 5534,-873 11651,-1555 18451,-1845 289,-8934 776,-17382 1358,-25540 583,-8058 1359,-16116 2234,-23981 873,-7965 2038,-15926 3300,-23888 1359,-7962 3011,-16216 5052,-24664 2524,-11168 5824,-21071 9903,-30005 4078,-8837 8740,-16702 13885,-23595 5148,-6895 10778,-12819 16799,-17674 6020,-4951 12233,-9030 18547,-12234 6310,-3107 12816,-5437 19322,-6896 6603,-1551 13013,-2231 19227,-2231 9223,0 17381,1166 24567,3593 7089,2427 13206,5631 18157,9517 4952,3979 8741,8447 11362,13302 2620,4952 3982,10000 3982,15147 0,3980 -682,7476 -1945,10682 -1262,3107 -3010,5728 -5241,7865 -2234,2135 -4855,3786 -7768,4855 -2914,1166 -6117,1748 -9420,1748 -4369,0 -8934,-1068 -13789,-3303l-582 -1551c1844,-4176 3203,-7769 4078,-10975 873,-3107 1359,-6310 1359,-9613 0,-4562 -969,-8448 -2817,-11748 -1845,-3303 -4272,-5924 -7182,-8061 -3011,-2038 -6314,-3593 -10003,-4562 -3690,-973 -7282,-1359 -10875,-1359 -10586,0 -19616,2328 -26995,7086 -7282,4758 -13399,11265 -18354,19519 -4854,8351 -8737,18061 -11554,29326 -2817,11261 -4952,23302 -6506,36315 -1456,13012 -2524,26605 -3107,40783 -583,14175 -1166,28353 -1652,42432z"/>
  <path id="1" class="fil0" d="M341991 462349c-1967,2403 -4005,4151 -6189,5242 -2113,1019 -4372,1601 -6703,1601 -3493,0 -6917,-872 -10339,-2620 -3424,-1748 -7064,-4444 -10853,-8083 -5534,-5317 -10632,-11508 -15366,-18644 -4805,-7139 -9102,-14858 -12963,-23087 -3932,-8301 -7354,-17042 -10342,-26291 -3057,-9248 -5606,-18715 -7718,-28403 -2113,-9684 -3643,-19444 -4734,-29275 -1094,-9832 -1601,-19516 -1601,-28986 0,-18204 1601,-36193 4733,-54036 3203,-17915 7937,-35249 14200,-52145 6263,-16895 14128,-33136 23452,-48720 9395,-15658 20245,-30369 32697,-44279l7575 5973c-10196,12598 -19226,26072 -27020,40491 -7790,14346 -14346,29275 -19591,44862 -5241,15583 -9248,31606 -11869,48066 -2695,16459 -4004,33061 -4004,49738 0,9907 508,20028 1527,30298 1022,10268 2624,20464 4880,30659 2184,10196 5026,20174 8522,30077 3493,9906 7719,19373 12599,28403 4951,9102 10632,17625 17113,25708 6410,8011 13692,15293 21775,21775l219 1676z"/>
  <path id="2" class="fil0" d="M354153 250932c4879,-1676 9541,-3131 13981,-4515 4372,-1312 8448,-2477 12016,-3421 3643,-1023 6774,-1749 9470,-2260 2692,-436 4733,-729 6263,-729 2185,0 4297,365 6189,948 1966,657 3861,1894 5680,3786 1820,1822 3568,4371 5316,7646 1749,3279 3497,7504 5316,12674 2113,6263 4226,12233 6410,17771 2113,5605 4151,11140 6192,16749 4515,-9031 9030,-17260 13546,-24761 4515,-7429 9102,-13692 13689,-18936 4590,-5242 9251,-9321 13985,-12162 4733,-2914 9538,-4369 14564,-4369 3203,0 5971,511 8448,1455 2402,947 4443,2259 6117,3789 1676,1602 2913,3422 3714,5534 801,2038 1237,4223 1237,6410 0,2985 -726,5971 -2256,8956 -1458,2913 -3786,5462 -6846,7500l-801 0c-1312,-1601 -2620,-2839 -4007,-3786 -1384,-947 -2839,-1748 -4222,-2256 -1456,-511 -2842,-875 -4226,-1094 -1383,-146 -2692,-218 -4004,-218 -4225,0 -8230,1166 -12090,3568 -3858,2403 -7647,5681 -11287,9906 -3643,4223 -7139,9249 -10632,15001 -3424,5752 -6846,12016 -10271,18862 3350,9177 6410,17260 9249,24252 2770,6918 5463,12963 7940,18061 2477,5098 4880,9320 7282,12745 2331,3421 4733,6117 7136,8229 2406,2038 4955,3497 7575,4369 2621,876 5463,1237 8594,1237 2185,0 4151,-71 5971,-143 1823,-146 3568,-439 5316,-729 1748,-293 3571,-801 5462,-1312 1967,-583 4079,-1309 6410,-2184l2184 6116c-3421,2331 -7135,4516 -10996,6482 -3933,1894 -7865,3571 -11872,4954 -4005,1384 -7865,2475 -11652,3204 -3860,801 -7354,1165 -10632,1165 -4661,0 -8740,-1165 -12455,-3350 -3639,-2259 -7135,-5827 -10414,-10706 -3349,-4880 -6624,-11069 -9977,-18644 -3350,-7572 -7064,-16749 -11140,-27381 -5027,8956 -9978,17185 -14929,24614 -4955,7500 -9907,13910 -14933,19298 -4951,5319 -9974,9541 -15001,12527 -4951,2985 -10049,4443 -15147,4443 -3132,0 -5899,-365 -8229,-1237 -2331,-876 -4298,-1966 -5899,-3425 -1530,-1455 -2696,-3056 -3568,-4951 -801,-1895 -1240,-3861 -1240,-5899 0,-2477 582,-4880 1601,-7429 1094,-2477 2696,-4805 4808,-7135 3861,1455 7283,2474 10343,2985 2985,583 5752,872 8229,872 4587,0 8956,-1165 13107,-3421 4225,-2259 8304,-5463 12308,-9613 4007,-4226 7940,-9249 11798,-15148 3932,-5898 7865,-12455 11872,-19737 -1312,-3421 -2549,-6918 -3861,-10560 -1312,-3568 -2767,-7429 -4222,-11433 -1530,-4004 -3060,-8301 -4737,-12817 -1601,-4515 -3349,-9323 -5169,-14421 -1674,-4369 -3278,-7937 -4880,-10632 -1602,-2767 -3350,-4880 -5170,-6481 -1748,-1530 -3714,-2621 -5827,-3204 -2112,-583 -4440,-801 -6989,-801 -2259,0 -4955,218 -8086,801 -3057,508 -6407,1166 -10050,1966l-1601 -7575z"/>
  <path id="3" class="fil0" d="M510658 111615c1966,-2477 4079,-4225 6192,-5244 2109,-1091 4368,-1602 6699,-1602 3497,0 6918,876 10339,2621 3425,1748 7065,4372 10925,8011 5463,5463 10561,11654 15294,18718 4734,7136 9031,14783 12891,23084 3858,8305 7354,17042 10414,26291 3057,9248 5606,18643 7647,28331 2113,9613 3715,19370 4805,29204 1094,9832 1602,19516 1602,29058 0,18279 -1527,36340 -4733,54182 -3132,17768 -7865,35175 -14200,52070 -6264,16824 -14057,33137 -23452,48720 -9320,15587 -20245,30370 -32697,44208l-7575 -5973c10267,-12599 19301,-26073 27019,-40419 7794,-14347 14347,-29348 19591,-44934 5316,-15584 9249,-31607 11944,-48066 2621,-16459 4004,-33062 4004,-49739 0,-9906 -582,-19955 -1601,-30223 -1019,-10270 -2624,-20538 -4809,-30659 -2256,-10196 -5097,-20248 -8591,-30079 -3571,-9832 -7721,-19298 -12673,-28329 -4880,-9105 -10560,-17624 -16970,-25708 -6481,-8011 -13764,-15293 -21847,-21846l-218 -1677z"/>
  <path id="4" class="fil1 str0" d="M178592 198788c4759,196 9324,389 13789,486 4372,96 8547,96 12333,196 3883,0 7283,97 10389,97 3107,96 5731,96 7865,96 4372,0 8545,-96 12431,-389 3882,-290 7185,-583 9902,-873 1069,3593 1555,6407 1555,8545 0,4175 -1651,6892 -5147,8254 -3494,1262 -8448,1941 -15051,1941 -6503,0 -13789,-293 -21847,-1068 -8058,-680 -16895,-1359 -26605,-2038 -390,11261 -876,23595 -1458,36801 -583,13302 -1262,27091 -2135,41269 -972,14272 -2041,28643 -3400,43307 -1358,14662 -2913,28936 -4854,42918 -1942,13886 -4273,27188 -6893,39908 -2721,12623 -5827,24181 -9324,34473 -5534,16216 -11847,29712 -18836,40587 -7089,10875 -14565,19616 -22433,26219 -7962,6603 -16116,11265 -24664,14079 -8448,2817 -16895,4175 -25343,4175 -7282,0 -14078,-776 -20292,-2427 -6217,-1652 -11558,-3786 -16119,-6507 -4566,-2814 -8158,-6020 -10779,-9613 -2624,-3689 -3886,-7572 -3886,-11651 0,-2234 486,-4465 1555,-6699 1069,-2235 2524,-4176 4369,-5924 1845,-1748 3982,-3107 6506,-4176 2524,-1069 5245,-1651 8158,-1651 2814,4954 5824,9127 9127,12623 3300,3400 6893,6313 10682,8544 3786,2138 7765,3790 11844,4858 4079,1066 8158,1552 12334,1552 10875,0 20195,-3496 27770,-10582 7672,-7089 14079,-17092 19227,-30005 5144,-12916 9223,-28549 12137,-46900 3010,-18257 5244,-38649 6796,-61079 1555,-22429 2624,-46607 3110,-72632 583,-26023 872,-53307 1066,-81857 -8934,97 -17089,390 -24761,972 -7572,583 -13885,1748 -19030,3690 -389,-876 -582,-1748 -582,-2721 0,-2231 1065,-4368 3299,-6310 2138,-1941 5245,-3689 9127,-5244 3983,-1455 8741,-2717 14275,-3689 5534,-873 11651,-1555 18451,-1845 289,-8934 776,-17382 1358,-25540 583,-8058 1359,-16116 2234,-23981 873,-7965 2038,-15926 3300,-23888 1359,-7962 3011,-16216 5052,-24664 2524,-11168 5824,-21071 9903,-30005 4078,-8837 8740,-16702 13885,-23595 5148,-6895 10778,-12819 16799,-17674 6020,-4951 12233,-9030 18547,-12234 6310,-3107 12816,-5437 19322,-6896 6603,-1551 13013,-2231 19227,-2231 9223,0 17381,1166 24567,3593 7089,2427 13206,5631 18157,9517 4952,3979 8741,8447 11362,13302 2620,4952 3982,10000 3982,15147 0,3980 -682,7476 -1945,10682 -1262,3107 -3010,5728 -5241,7865 -2234,2135 -4855,3786 -7768,4855 -2914,1166 -6117,1748 -9420,1748 -4369,0 -8934,-1068 -13789,-3303l-582 -1551c1844,-4176 3203,-7769 4078,-10975 873,-3107 1359,-6310 1359,-9613 0,-4562 -969,-8448 -2817,-11748 -1845,-3303 -4272,-5924 -7182,-8061 -3011,-2038 -6314,-3593 -10003,-4562 -3690,-973 -7282,-1359 -10875,-1359 -10586,0 -19616,2328 -26995,7086 -7282,4758 -13399,11265 -18354,19519 -4854,8351 -8737,18061 -11554,29326 -2817,11261 -4952,23302 -6506,36315 -1456,13012 -2524,26605 -3107,40783 -583,14175 -1166,28353 -1652,42432z"/>
  <path id="5" class="fil1 str0" d="M341991 462349c-1967,2403 -4005,4151 -6189,5242 -2113,1019 -4372,1601 -6703,1601 -3493,0 -6917,-872 -10339,-2620 -3424,-1748 -7064,-4444 -10853,-8083 -5534,-5317 -10632,-11508 -15366,-18644 -4805,-7139 -9102,-14858 -12963,-23087 -3932,-8301 -7354,-17042 -10342,-26291 -3057,-9248 -5606,-18715 -7718,-28403 -2113,-9684 -3643,-19444 -4734,-29275 -1094,-9832 -1601,-19516 -1601,-28986 0,-18204 1601,-36193 4733,-54036 3203,-17915 7937,-35249 14200,-52145 6263,-16895 14128,-33136 23452,-48720 9395,-15658 20245,-30369 32697,-44279l7575 5973c-10196,12598 -19226,26072 -27020,40491 -7790,14346 -14346,29275 -19591,44862 -5241,15583 -9248,31606 -11869,48066 -2695,16459 -4004,33061 -4004,49738 0,9907 508,20028 1527,30298 1022,10268 2624,20464 4880,30659 2184,10196 5026,20174 8522,30077 3493,9906 7719,19373 12599,28403 4951,9102 10632,17625 17113,25708 6410,8011 13692,15293 21775,21775l219 1676z"/>
  <path id="6" class="fil1 str0" d="M354153 250932c4879,-1676 9541,-3131 13981,-4515 4372,-1312 8448,-2477 12016,-3421 3643,-1023 6774,-1749 9470,-2260 2692,-436 4733,-729 6263,-729 2185,0 4297,365 6189,948 1966,657 3861,1894 5680,3786 1820,1822 3568,4371 5316,7646 1749,3279 3497,7504 5316,12674 2113,6263 4226,12233 6410,17771 2113,5605 4151,11140 6192,16749 4515,-9031 9030,-17260 13546,-24761 4515,-7429 9102,-13692 13689,-18936 4590,-5242 9251,-9321 13985,-12162 4733,-2914 9538,-4369 14564,-4369 3203,0 5971,511 8448,1455 2402,947 4443,2259 6117,3789 1676,1602 2913,3422 3714,5534 801,2038 1237,4223 1237,6410 0,2985 -726,5971 -2256,8956 -1458,2913 -3786,5462 -6846,7500l-801 0c-1312,-1601 -2620,-2839 -4007,-3786 -1384,-947 -2839,-1748 -4222,-2256 -1456,-511 -2842,-875 -4226,-1094 -1383,-146 -2692,-218 -4004,-218 -4225,0 -8230,1166 -12090,3568 -3858,2403 -7647,5681 -11287,9906 -3643,4223 -7139,9249 -10632,15001 -3424,5752 -6846,12016 -10271,18862 3350,9177 6410,17260 9249,24252 2770,6918 5463,12963 7940,18061 2477,5098 4880,9320 7282,12745 2331,3421 4733,6117 7136,8229 2406,2038 4955,3497 7575,4369 2621,876 5463,1237 8594,1237 2185,0 4151,-71 5971,-143 1823,-146 3568,-439 5316,-729 1748,-293 3571,-801 5462,-1312 1967,-583 4079,-1309 6410,-2184l2184 6116c-3421,2331 -7135,4516 -10996,6482 -3933,1894 -7865,3571 -11872,4954 -4005,1384 -7865,2475 -11652,3204 -3860,801 -7354,1165 -10632,1165 -4661,0 -8740,-1165 -12455,-3350 -3639,-2259 -7135,-5827 -10414,-10706 -3349,-4880 -6624,-11069 -9977,-18644 -3350,-7572 -7064,-16749 -11140,-27381 -5027,8956 -9978,17185 -14929,24614 -4955,7500 -9907,13910 -14933,19298 -4951,5319 -9974,9541 -15001,12527 -4951,2985 -10049,4443 -15147,4443 -3132,0 -5899,-365 -8229,-1237 -2331,-876 -4298,-1966 -5899,-3425 -1530,-1455 -2696,-3056 -3568,-4951 -801,-1895 -1240,-3861 -1240,-5899 0,-2477 582,-4880 1601,-7429 1094,-2477 2696,-4805 4808,-7135 3861,1455 7283,2474 10343,2985 2985,583 5752,872 8229,872 4587,0 8956,-1165 13107,-3421 4225,-2259 8304,-5463 12308,-9613 4007,-4226 7940,-9249 11798,-15148 3932,-5898 7865,-12455 11872,-19737 -1312,-3421 -2549,-6918 -3861,-10560 -1312,-3568 -2767,-7429 -4222,-11433 -1530,-4004 -3060,-8301 -4737,-12817 -1601,-4515 -3349,-9323 -5169,-14421 -1674,-4369 -3278,-7937 -4880,-10632 -1602,-2767 -3350,-4880 -5170,-6481 -1748,-1530 -3714,-2621 -5827,-3204 -2112,-583 -4440,-801 -6989,-801 -2259,0 -4955,218 -8086,801 -3057,508 -6407,1166 -10050,1966l-1601 -7575z"/>
  <path id="7" class="fil1 str0" d="M510658 111615c1966,-2477 4079,-4225 6192,-5244 2109,-1091 4368,-1602 6699,-1602 3497,0 6918,876 10339,2621 3425,1748 7065,4372 10925,8011 5463,5463 10561,11654 15294,18718 4734,7136 9031,14783 12891,23084 3858,8305 7354,17042 10414,26291 3057,9248 5606,18643 7647,28331 2113,9613 3715,19370 4805,29204 1094,9832 1602,19516 1602,29058 0,18279 -1527,36340 -4733,54182 -3132,17768 -7865,35175 -14200,52070 -6264,16824 -14057,33137 -23452,48720 -9320,15587 -20245,30370 -32697,44208l-7575 -5973c10267,-12599 19301,-26073 27019,-40419 7794,-14347 14347,-29348 19591,-44934 5316,-15584 9249,-31607 11944,-48066 2621,-16459 4004,-33062 4004,-49739 0,-9906 -582,-19955 -1601,-30223 -1019,-10270 -2624,-20538 -4809,-30659 -2256,-10196 -5097,-20248 -8591,-30079 -3571,-9832 -7721,-19298 -12673,-28329 -4880,-9105 -10560,-17624 -16970,-25708 -6481,-8011 -13764,-15293 -21847,-21846l-218 -1677z"/>
 </g>
</svg>
