<?xml version="1.0" encoding="UTF-8"?>
<!DOCTYPE svg PUBLIC "-//W3C//DTD SVG 1.1//EN" "http://www.w3.org/Graphics/SVG/1.1/DTD/svg11.dtd">
<!-- Creator: CorelDRAW Home & Student X7 -->
<svg xmlns="http://www.w3.org/2000/svg" xml:space="preserve" width="65222.5mm" height="70555.6mm" version="1.1" style="shape-rendering:geometricPrecision; text-rendering:geometricPrecision; image-rendering:optimizeQuality; fill-rule:evenodd; clip-rule:evenodd"
viewBox="0 0 4748550 5136824"
 xmlns:xlink="http://www.w3.org/1999/xlink">
 <defs>
  <style type="text/css">
   <![CDATA[
    .str1 {stroke:#333333;stroke-width:752567;stroke-linecap:round}
    .str0 {stroke:#333333;stroke-width:250856;stroke-dasharray:250855.798594 250855.798594}
    .fil0 {fill:none}
    .fil1 {fill:#4D4D4D}
    .fil2 {fill:#4D4D4D;fill-rule:nonzero}
   ]]>
  </style>
 </defs>
 <g id="Icons">
  <metadata id="CorelCorpID_0Corel-Layer"/>
  <g id="_755617864">
   <rect class="fil0 str0" x="125428" y="2753694" width="2257702" height="2257702"/>
   <circle class="fil1" cx="3108555" cy="1639970" r="501712"/>
   <g>
    <g>
     <path class="fil2" d="M2913765 514656c0,-89481 72573,-162053 162053,-162053 89480,0 162053,72572 162053,162053l0 423118 -324106 324106 0 -747224zm324106 1568877l0 747224c0,89480 -72573,162053 -162053,162053 -89480,0 -162053,-72573 -162053,-162053l0 -423118 324106 -324106z"/>
     <path class="fil2" d="M4409920 911485c-11490,20795 -27745,39359 -48466,53934l-18463 12994 66929 -66928zm-2668203 1522443c11489,-20796 27745,-39359 48465,-53934l18463 -12994 -66928 66928z"/>
     <path class="fil2" d="M4143787 1177617l264903 46007c66076,11264 110502,74003 99239,140053 -11264,66076 -74003,110502 -140078,99239l-433955 -75382 209891 -209917z"/>
     <path class="fil2" d="M2007850 2167795l-264904 -46006c-66075,-11264 -110502,-74003 -99238,-140053 11263,-66076 74002,-110502 140077,-99239l433956 75382 -209891 209916z"/>
     <path class="fil2" d="M1790182 965419c-73049,-51376 -90634,-152295 -39234,-225344 51376,-73049 152295,-90634 225344,-39259l879400 619112 -232167 232167 -833343 -586676zm1737929 827899l833343 586676c73049,51376 90634,152295 39234,225344 -51375,73049 -152295,90634 -225344,39259l-879400 -619112 232167 -232167z"/>
     <path class="fil2" d="M2203442 568640c-11263,-66075 33163,-128815 99214,-140078 66075,-11263 128814,33163 140077,99239l117652 677386c11263,66075 -33138,128789 -99214,140052l-677386 117677c-66075,11263 -128814,-33163 -140077,-99239 -11264,-66050 33163,-128789 99238,-140053l557452 -96830 -96956 -558154z"/>
     <path class="fil2" d="M3948194 2776773c11264,66075 -33163,128814 -99213,140078 -66076,11263 -128815,-33163 -140078,-99239l-117651 -677386c-11264,-66075 33138,-128789 99213,-140052l677386 -117677c66075,-11263 128814,33163 140078,99239 11263,66050 -33163,128789 -99239,140053l-557451 96830 96955 558154z"/>
    </g>
    <line class="fil0 str1" x1="1779395" y1="2969129" x2="4372241" y2= "376284" />
   </g>
  </g>
 </g>
</svg>
