<?xml version="1.0" encoding="UTF-8"?>
<!DOCTYPE svg PUBLIC "-//W3C//DTD SVG 1.1//EN" "http://www.w3.org/Graphics/SVG/1.1/DTD/svg11.dtd">
<!-- Creator: CorelDRAW Home & Student X7 -->
<svg xmlns="http://www.w3.org/2000/svg" xml:space="preserve" width="70555.6mm" height="70555.6mm" version="1.1" style="shape-rendering:geometricPrecision; text-rendering:geometricPrecision; image-rendering:optimizeQuality; fill-rule:evenodd; clip-rule:evenodd"
viewBox="0 0 1763898 1763898"
 xmlns:xlink="http://www.w3.org/1999/xlink">
 <defs>
  <style type="text/css">
   <![CDATA[
    .str1 {stroke:#333333;stroke-width:278509;stroke-linecap:round}
    .str0 {stroke:#333333;stroke-width:92836.3;stroke-dasharray:92836.257310 92836.257310}
    .fil0 {fill:none}
    .fil1 {fill:#4D4D4D;fill-rule:nonzero}
   ]]>
  </style>
 </defs>
 <g id="Icons">
  <metadata id="CorelCorpID_0Corel-Layer"/>
  <g id="_847974608">
   <rect class="fil0 str0" x="46418" y="46418" width="1671053" height="1671053"/>
   <g>
    <g>
     <path class="fil1" d="M789108 218527c0,-51264 41572,-92836 92836,-92836 51265,0 92837,41572 92837,92836l0 242386 -185673 185673 0 -428059zm185673 898776l0 428059c0,51264 -41572,92836 -92837,92836 -51264,0 -92836,-41572 -92836,-92836l0 -242387 185673 -185672z"/>
     <path class="fil1" d="M1646219 445865c-6582,11901 -15894,22540 -27767,30896l-10574 7445 38341 -38341zm-1528549 872159c6582,-11901 15894,-22540 27767,-30896l10574 -7445 -38341 38341z"/>
     <path class="fil1" d="M1493763 598320l151760 26357c37849,6452 63295,42389 56843,80238 -6452,37849 -42389,63296 -80238,56844l-248616 -43188 120251 -120251z"/>
     <path class="fil1" d="M270126 1165568l-151760 -26356c-37849,-6452 -63296,-42389 -56843,-80238 6452,-37849 42389,-63296 80238,-56844l248615 43188 -120250 120250z"/>
     <path class="fil1" d="M145437 476761c-41850,-29439 -51923,-87248 -22485,-129098 29439,-41851 87248,-51924 129098,-22485l503795 354671 -133007 133007 -477401 -336095zm995613 474272l477402 336095c41850,29439 51923,87248 22485,129098 -29439,41851 -87248,51924 -129099,22485l-503794 -354671 133006 -133007z"/>
     <path class="fil1" d="M382179 249451c-6452,-37849 18994,-73786 56844,-80238 37849,-6452 73786,18994 80238,56843l67408 388056c6453,37849 -18994,73786 -56843,80238l-388065 67409c-37849,6452 -73786,-18995 -80238,-56844 -6453,-37849 18994,-73786 56843,-80238l319357 -55470 -55544 -319756z"/>
     <path class="fil1" d="M1381710 1514438c6452,37849 -18994,73786 -56844,80238 -37849,6452 -73786,-18994 -80238,-56843l-67409 -388056c-6452,-37849 18995,-73786 56844,-80238l388065 -67409c37849,-6452 73786,18995 80238,56844 6452,37849 -18994,73786 -56843,80238l-319357 55470 55544 319756z"/>
    </g>
    <line class="fil0 str1" x1="139254" y1="1624635" x2="1624635" y2= "139254" />
   </g>
  </g>
 </g>
</svg>
