<?xml version="1.0" encoding="UTF-8"?>
<!DOCTYPE svg PUBLIC "-//W3C//DTD SVG 1.1//EN" "http://www.w3.org/Graphics/SVG/1.1/DTD/svg11.dtd">
<!-- Creator: CorelDRAW Home & Student X7 -->
<svg xmlns="http://www.w3.org/2000/svg" xml:space="preserve" width="20mm" height="20mm" version="1.1" style="shape-rendering:geometricPrecision; text-rendering:geometricPrecision; image-rendering:optimizeQuality; fill-rule:evenodd; clip-rule:evenodd"
viewBox="0 0 306 306"
 xmlns:xlink="http://www.w3.org/1999/xlink">
 <defs>
  <style type="text/css">
   <![CDATA[
    .str0 {stroke:#333333;stroke-width:48.3871;stroke-linecap:round}
    .fil1 {fill:none}
    .fil0 {fill:#4D4D4D;fill-rule:nonzero}
   ]]>
  </style>
 </defs>
 <g id="Icons">
  <metadata id="CorelCorpID_0Corel-Layer"/>
  <g id="_848557240">
   <g>
    <path class="fil0" d="M137 38c0,-9 7,-16 16,-16 9,0 16,7 16,16l0 42 -32 32 0 -74zm32 156l0 74c0,9 -7,17 -16,17 -9,0 -16,-8 -16,-17l0 -42 32 -32z"/>
    <path class="fil0" d="M286 77c-1,3 -3,4 -5,6l-2 1 7 -7zm-266 152c2,-2 3,-4 5,-5l2 -2 -7 7z"/>
    <path class="fil0" d="M260 104l26 5c6,1 11,7 10,13 -1,7 -8,11 -14,10l-43 -7 21 -21z"/>
    <path class="fil0" d="M47 203l-26 -5c-7,-1 -11,-7 -10,-14 1,-7 7,-11 14,-10l43 8 -21 21z"/>
    <path class="fil0" d="M25 83c-7,-5 -9,-15 -4,-23 5,-7 16,-9 23,-4l87 62 -23 23 -83 -58zm173 82l83 59c7,5 9,15 4,22 -5,7 -15,9 -22,4l-88 -62 23 -23z"/>
    <path class="fil0" d="M66 43c-1,-6 4,-12 10,-14 7,-1 13,4 14,10l12 68c1,6 -3,13 -10,14l-67 11c-7,1 -13,-3 -14,-10 -1,-6 3,-12 10,-13l55 -10 -10 -56z"/>
    <path class="fil0" d="M240 263c1,7 -3,13 -10,14 -6,1 -13,-3 -14,-10l-11 -67c-2,-7 3,-13 9,-14l68 -12c6,-1 13,3 14,10 1,7 -4,13 -10,14l-56 10 10 55z"/>
   </g>
   <line class="fil1 str0" x1="24" y1="282" x2="282" y2= "24" />
  </g>
 </g>
</svg>
