<?xml version="1.0" encoding="UTF-8"?>
<!DOCTYPE svg PUBLIC "-//W3C//DTD SVG 1.1//EN" "http://www.w3.org/Graphics/SVG/1.1/DTD/svg11.dtd">
<!-- Creator: CorelDRAW Home & Student X7 -->
<svg xmlns="http://www.w3.org/2000/svg" xml:space="preserve" width="70555.6mm" height="70555.6mm" version="1.1" style="shape-rendering:geometricPrecision; text-rendering:geometricPrecision; image-rendering:optimizeQuality; fill-rule:evenodd; clip-rule:evenodd"
viewBox="0 0 778723 778723"
 xmlns:xlink="http://www.w3.org/1999/xlink">
 <defs>
  <style type="text/css">
   <![CDATA[
    .str0 {stroke:#4D4D4D;stroke-width:119939;stroke-linecap:round}
    .fil1 {fill:none}
    .fil0 {fill:gray;fill-rule:nonzero}
   ]]>
  </style>
 </defs>
 <g id="Icons">
  <metadata id="CorelCorpID_0Corel-Layer"/>
  <g id="_851141648">
   <g>
    <path class="fil0" d="M49535 109505c0,-33120 26850,-59970 59970,-59970 33119,0 59969,26850 59969,59970l0 119939c0,33119 -26850,59970 -59969,59970 -33120,0 -59970,-26851 -59970,-59970l0 -119939z"/>
    <path class="fil0" d="M89515 349383c0,-11038 8951,-19989 19990,-19989 11038,0 19990,8951 19990,19989l0 130247 -39980 39979 0 -170226z"/>
    <path class="fil0" d="M249442 349383c0,-33119 26850,-59969 59970,-59969 3246,0 6428,264 9539,759l-69509 69509 0 -10299z"/>
    <path class="fil0" d="M329402 618927l0 130255c0,11038 -8952,19989 -19990,19989 -11039,0 -19990,-8951 -19990,-19989l0 -90275 39980 -39980z"/>
    <path class="fil0" d="M533774 414555c20926,9359 35506,30360 35506,54768l0 119939c0,33120 -26850,59970 -59969,59970 -33120,0 -59970,-26850 -59970,-59970l0 -90274 84433 -84433z"/>
    <path class="fil0" d="M489321 709202c0,-11039 8951,-19990 19990,-19990 11038,0 19990,8951 19990,19990l0 39980c0,11038 -8952,19989 -19990,19989 -11039,0 -19990,-8951 -19990,-19989l0 -39980z"/>
    <path class="fil0" d="M769187 179141l0 50303c0,33119 -26850,59970 -59969,59970 -14097,0 -27059,-4866 -37297,-13006l97266 -97267z"/>
    <path class="fil0" d="M689228 349383c0,-11038 8951,-19989 19990,-19989 11038,0 19990,8951 19990,19989l0 399799c0,11038 -8952,19989 -19990,19989 -11039,0 -19990,-8951 -19990,-19989l0 -399799z"/>
    <path class="fil0" d="M289422 69525c0,-11039 8951,-19990 19990,-19990 11038,0 19990,8951 19990,19990l0 159919c0,11039 -8952,19990 -19990,19990 -11039,0 -19990,-8951 -19990,-19990l0 -159919z"/>
    <path class="fil0" d="M489321 69525c0,-11039 8951,-19990 19990,-19990 11038,0 19990,8951 19990,19990l0 10299 -39980 39979 0 -50278z"/>
   </g>
   <line class="fil1 str0" x1="59974" y1="718753" x2="718753" y2= "59974" />
  </g>
 </g>
</svg>
